# xmcd
#
# Track frame offsets: 
#        150
#        14602
#        27410
#        41197
#        58872
#        81927
#        95180
#        109282
#        125577
#        151677
#
# Disc length: 2205 seconds
#
# Revision: 3
# Processed by: cddbd v1.5.2PL0 Copyright (c) Steve Scherf et al.
# Submitted via: ExactAudioCopyFreeDBPlugin 1.0
#
DISCID=8a089b0a
DTITLE=Neil Young - Old Ways
DYEAR=1985
DGENRE=Rock
TTITLE0=The wayward wind
TTITLE1=Get back to the country
TTITLE2=Are there any more real cowboys?
TTITLE3=Once an angel
TTITLE4=Misfits
TTITLE5=California sunset
TTITLE6=Old ways
TTITLE7=My boy
TTITLE8=Bound for glory
TTITLE9=Where is the highway tonight?
EXTD=YEAR: 1985
EXTT0=
EXTT1=
EXTT2=
EXTT3=
EXTT4=
EXTT5=
EXTT6=
EXTT7=
EXTT8=
EXTT9=
PLAYORDER=
